<svg xmlns="http://www.w3.org/2000/svg" width="140" height="140" viewBox="0 0 140 140" fill="none">
  <path d="M117.661 117.661C111.973 123.349 105.221 127.862 97.789 130.94C90.3574 134.019 82.3922 135.603 74.3482 135.603C66.3042 135.603 58.339 134.019 50.9074 130.94C43.4758 127.862 36.7233 123.349 31.0357 117.661C25.3474 111.973 20.8352 105.221 17.7567 97.7895C14.6782 90.3579 13.0938 82.3926 13.0938 74.3487C13.0937 66.3047 14.6782 58.3395 17.7567 50.9079C20.8352 43.4763 25.3474 36.7238 31.0357 31.0362C36.7233 25.3479 43.4758 20.8357 50.9074 17.7572C58.339 14.6787 66.3042 13.0942 74.3482 13.0942C82.3922 13.0942 90.3574 14.6787 97.789 17.7572C105.221 20.8357 111.973 25.3479 117.661 31.0362C123.349 36.7238 127.861 43.4763 130.94 50.9079C134.018 58.3395 135.603 66.3047 135.603 74.3487C135.603 82.3926 134.018 90.3579 130.94 97.7895C127.861 105.221 123.349 111.973 117.661 117.661Z" fill="#FFEFED"/>
  <path d="M28.7246 28.7251C53.8888 3.56127 94.8164 3.56104 119.98 28.7251C145.145 53.8892 145.145 94.8168 119.98 119.981C94.8164 145.136 53.8888 145.136 28.7246 119.981C3.56901 94.8168 3.56901 53.8893 28.7246 28.7251ZM74.3564 16.3481C66.7407 16.3482 59.1994 17.8504 52.165 20.769C45.1319 23.6872 38.7434 27.9636 33.3652 33.354C27.9723 38.7329 23.6928 45.1236 20.7734 52.1587C17.854 59.1938 16.3516 66.7362 16.3516 74.353C16.3516 81.9699 17.854 89.5122 20.7734 96.5474C23.6925 103.582 27.9713 109.971 33.3633 115.349V115.35C38.7419 120.741 45.1311 125.018 52.165 127.937C59.1994 130.856 66.7407 132.358 74.3564 132.358C81.9722 132.358 89.5135 130.856 96.5479 127.937C103.582 125.018 109.971 120.741 115.35 115.349C120.742 109.971 125.02 103.582 127.939 96.5474C130.859 89.5122 132.361 81.9699 132.361 74.353C132.361 66.7362 130.859 59.1938 127.939 52.1587C125.111 45.3435 121.007 39.1335 115.851 33.8618L115.349 33.354C109.97 27.9634 103.581 23.6873 96.5479 20.769C89.5135 17.8504 81.9722 16.3481 74.3564 16.3481Z" fill="#CF2913" stroke="white" stroke-width="2.2"/>
  <path fill-rule="evenodd" clip-rule="evenodd" d="M95.9004 48.2737C94.7653 48.3107 93.6891 48.7874 92.8992 49.6035L49.5954 92.9156C49.1618 93.3153 48.8134 93.7995 48.5713 94.3373C48.3291 94.875 48.1982 95.4555 48.1864 96.0452C48.1746 96.6348 48.2822 97.221 48.5026 97.768C48.723 98.3151 49.0518 98.8125 49.4691 99.2292C49.8865 99.646 50.3838 99.973 50.9311 100.193C51.4785 100.412 52.0646 100.519 52.6543 100.507C53.2439 100.494 53.8249 100.363 54.3624 100.12C54.8998 99.8771 55.3826 99.5278 55.7817 99.0936L99.1029 55.79C99.7416 55.1757 100.179 54.3811 100.356 53.5128C100.534 52.6446 100.443 51.7438 100.097 50.928C99.7509 50.1122 99.1651 49.42 98.4173 48.9445C97.6694 48.469 96.7948 48.2326 95.9092 48.2652L95.9004 48.2737Z" fill="url(#paint0_linear_637_2676)"/>
  <path fill-rule="evenodd" clip-rule="evenodd" d="M52.6573 48.274C51.7829 48.2687 50.927 48.5252 50.2 49.011C49.473 49.4969 48.9082 50.1899 48.5786 50.9998C48.249 51.8097 48.1696 52.6993 48.3508 53.5548C48.5319 54.4102 48.9652 55.1921 49.5948 55.7989L92.9073 99.0939C93.7313 99.892 94.8358 100.335 95.983 100.326C97.1302 100.318 98.2282 99.859 99.0405 99.049C99.8529 98.239 100.315 97.1424 100.326 95.9953C100.338 94.8481 99.8982 93.7421 99.1023 92.9159L55.7811 49.6038C55.3753 49.1852 54.8899 48.8517 54.3535 48.6233C53.817 48.3949 53.2403 48.2764 52.6573 48.274Z" fill="url(#paint1_linear_637_2676)"/>
  <defs>
    <linearGradient id="paint0_linear_637_2676" x1="74.3152" y1="48.2622" x2="74.3152" y2="100.508" gradientUnits="userSpaceOnUse">
      <stop stop-color="#CF2913"/>
      <stop offset="1" stop-color="#B11500"/>
    </linearGradient>
    <linearGradient id="paint1_linear_637_2676" x1="74.2911" y1="48.2739" x2="74.2911" y2="100.327" gradientUnits="userSpaceOnUse">
      <stop stop-color="#CF2913"/>
      <stop offset="1" stop-color="#B11500"/>
    </linearGradient>
  </defs>
</svg>