<svg xmlns="http://www.w3.org/2000/svg" width="20" height="20" viewBox="0 0 20 20" fill="none">
  <path d="M4.04746 17.1426V4.10931C4.04737 3.83232 4.1393 3.56314 4.30879 3.34406C4.47828 3.12497 4.71574 2.96839 4.98388 2.89891C5.25202 2.82942 5.53564 2.85096 5.79021 2.96016C6.04477 3.06935 6.25586 3.26 6.39031 3.50217L13.6094 16.4974C13.7438 16.7396 13.9549 16.9302 14.2095 17.0394C14.464 17.1486 14.7477 17.1702 15.0158 17.1007C15.2839 17.0312 15.5214 16.8746 15.6909 16.6555C15.8604 16.4364 15.9523 16.1673 15.9522 15.8903V2.85693M1.6665 7.61884H18.3332M1.6665 12.3807H18.3332" stroke="#CF2913" stroke-width="1.5" stroke-linecap="round" stroke-linejoin="round"/>
</svg>