<svg width="80" height="80" viewBox="0 0 80 80" fill="none" xmlns="http://www.w3.org/2000/svg">
<path d="M45.3128 47.9292L42.7157 29.4404L43.5196 28.3273C43.5196 28.3273 44.8799 24.5554 44.7563 24.5554C42.2828 18.6191 48.2191 15.7129 48.3427 15.651C56.6693 12.1903 57.8654 20.5979 57.8654 20.5979L71.3516 33.9676L45.3128 47.9292Z" fill="#06080E"/>
<path d="M58.6832 32.7441L53.257 22.2163C53.257 22.2163 45.6974 24.0714 46.4394 30.1005C47.1815 36.1297 47.9235 41.2312 47.9235 41.2312L58.6832 32.7441Z" fill="#FFAC40"/>
<path d="M61.9763 65.1848C71.3835 65.1848 79.0096 57.5587 79.0096 48.1515C79.0096 38.7442 71.3835 31.1182 61.9763 31.1182C52.5691 31.1182 44.943 38.7442 44.943 48.1515C44.943 57.5587 52.5691 65.1848 61.9763 65.1848Z" fill="#070407"/>
<path d="M61.9763 64.4558C70.9809 64.4558 78.2806 57.1561 78.2806 48.1515C78.2806 39.1469 70.9809 31.8472 61.9763 31.8472C52.9717 31.8472 45.672 39.1469 45.672 48.1515C45.672 57.1561 52.9717 64.4558 61.9763 64.4558Z" fill="#75C1F2"/>
<path d="M61.9762 62.3737C70.0008 62.3737 76.5061 56.0063 76.5061 48.1517C76.5061 40.2971 70.0008 33.9297 61.9762 33.9297C53.9516 33.9297 47.4464 40.2971 47.4464 48.1517C47.4464 56.0063 53.9516 62.3737 61.9762 62.3737Z" fill="#070407"/>
<path d="M62.284 62.2844C54.8465 62.2844 48.8108 56.2538 48.8108 48.813C48.8108 41.3723 54.8432 35.3398 62.284 35.3398C68.9547 35.3398 74.4951 40.1907 75.5669 46.5595C76.9599 54.7736 70.6235 62.2844 62.284 62.2844Z" fill="#FFAC40"/>
<path d="M62.284 62.2845C58.9861 62.2845 55.9645 61.101 53.6232 59.1311C53.8336 58.7653 54.1774 58.4379 54.5359 58.2184C54.6914 58.1233 54.8597 58.0319 54.9603 57.8781C55.0718 57.7118 55.0847 57.5014 55.1066 57.302C55.3846 54.6096 57.5832 52.3013 60.2043 51.6263C62.8273 50.9495 65.7227 51.8036 67.7622 53.5834C67.5116 52.9268 67.7402 52.1861 68.0383 51.5495C69.3895 48.6545 72.1954 46.4923 75.5669 46.5596C76.9599 54.7737 70.6235 62.2845 62.284 62.2845Z" fill="white"/>
<path d="M53.0653 48.5205C53.2697 47.816 53.0833 47.1428 52.649 47.0168C52.2147 46.8908 51.697 47.3598 51.4927 48.0643C51.2883 48.7688 51.4747 49.442 51.909 49.5679C52.3433 49.6939 52.861 49.2249 53.0653 48.5205Z" fill="white"/>
<path d="M47.2507 25.3124C49.6685 20.9848 57.0651 19.942 60.302 23.1815C59.8242 22.7943 59.2992 22.4739 58.738 22.2397C55.5262 20.8415 49.879 21.5717 47.2507 25.3124Z" fill="white"/>
<path d="M46.0615 23.5366C47.4586 20.8303 50.5876 19.4225 53.6482 19.3872C55.9572 19.3861 57.5808 20.1313 58.6319 21.189C56.7646 19.677 54.2353 19.4252 51.8976 19.8647C49.2953 20.345 47.2664 21.704 46.0615 23.5366Z" fill="white"/>
<path d="M44.3151 27.5976C45.2992 28.3233 46.4534 28.8168 47.658 29.0269C48.5345 29.1798 49.475 29.1983 50.2246 29.6777C50.6308 29.9375 50.9563 30.3204 51.3929 30.5252C51.8453 30.7375 52.3637 30.7346 52.8618 30.7753C53.3779 30.8174 54.2637 30.9876 54.4651 31.5613C54.0418 31.4245 53.5805 31.4434 53.147 31.5428C52.0805 31.7874 50.8626 32.4273 50.1053 33.2258C48.0001 35.4455 47.2523 38.491 46.6615 41.4572C46.5291 42.1216 46.2903 42.7569 46.1247 43.4199C45.9377 44.1679 45.7545 44.9169 45.5817 45.6683C45.5221 45.9271 45.4536 47.0483 45.018 46.7144C44.699 46.47 44.5999 45.7162 44.4756 45.3563C43.8352 43.5027 43.3368 41.6034 42.8681 39.6992C42.7482 39.2118 42.6299 38.7227 42.5666 38.2248C42.2783 35.956 41.8536 33.6832 41.4503 31.4164C41.2521 30.3023 40.2631 27.0198 41.9649 26.6001C42.8936 26.371 43.7348 27.1696 44.3151 27.5976Z" fill="#06080E"/>
<path d="M53.3111 30.9183C51.7996 30.6388 50.1733 30.9261 48.7228 31.4312C47.2333 31.9276 45.8818 32.7221 44.8344 33.9083C45.2551 33.2394 45.8333 32.6658 46.4878 32.2097C48.266 30.9698 51.2151 30.1677 53.3111 30.9183Z" fill="white"/>
<path d="M34.6872 47.9292L37.2843 29.4404L36.4805 28.3273C36.4805 28.3273 35.1201 24.5554 35.2438 24.5554C37.7172 18.6191 31.781 15.7129 31.6573 15.651C23.3307 12.1903 22.1346 20.5979 22.1346 20.5979L8.64844 33.9676L34.6872 47.9292Z" fill="#06080E"/>
<path d="M21.3169 32.7441L26.7431 22.2163C26.7431 22.2163 34.3027 24.0714 33.5606 30.1005C32.8186 36.1297 32.0765 41.2312 32.0765 41.2312L21.3169 32.7441Z" fill="#FFAC40"/>
<path d="M18.0238 65.1848C27.431 65.1848 35.0571 57.5587 35.0571 48.1515C35.0571 38.7442 27.431 31.1182 18.0238 31.1182C8.61655 31.1182 0.990479 38.7442 0.990479 48.1515C0.990479 57.5587 8.61655 65.1848 18.0238 65.1848Z" fill="#070407"/>
<path d="M18.0238 64.4558C27.0284 64.4558 34.3281 57.1561 34.3281 48.1515C34.3281 39.1469 27.0284 31.8472 18.0238 31.8472C9.01917 31.8472 1.71948 39.1469 1.71948 48.1515C1.71948 57.1561 9.01917 64.4558 18.0238 64.4558Z" fill="#75C1F2"/>
<path d="M18.0237 62.3737C26.0483 62.3737 32.5536 56.0063 32.5536 48.1517C32.5536 40.2971 26.0483 33.9297 18.0237 33.9297C9.99912 33.9297 3.4939 40.2971 3.4939 48.1517C3.4939 56.0063 9.99912 62.3737 18.0237 62.3737Z" fill="#070407"/>
<path d="M31.8029 48.813C31.8029 56.2519 25.7705 62.2844 18.3316 62.2844C10.8941 62.2844 4.8584 56.2538 4.8584 48.813C4.8584 41.3723 10.8908 35.3398 18.3316 35.3398C25.7944 35.3398 31.8029 41.3962 31.8029 48.813Z" fill="#FFAC40"/>
<path d="M18.3315 62.2845C15.0336 62.2845 12.012 61.101 9.67065 59.1311C10.127 58.3378 10.8102 58.1802 11.0077 57.8781C11.2414 57.5297 11.3232 52.8956 16.2517 51.6263C18.8747 50.9495 21.7702 51.8036 23.8096 53.5834C23.559 52.9268 23.7877 52.1861 24.0858 51.5495C25.437 48.6545 28.2429 46.4923 31.6144 46.5596C33.0074 54.7737 26.671 62.2845 18.3315 62.2845Z" fill="white"/>
<path d="M9.11296 48.5205C9.31731 47.816 9.13091 47.1428 8.69663 47.0168C8.26235 46.8908 7.74465 47.3598 7.5403 48.0643C7.33595 48.7688 7.52234 49.442 7.95662 49.5679C8.39089 49.6939 8.90861 49.2249 9.11296 48.5205Z" fill="white"/>
<path d="M32.7492 25.3127C31.3218 23.281 29.0449 22.1221 26.622 21.7378C24.2266 21.3488 21.6095 21.6327 19.698 23.1817C22.8943 19.9828 30.3024 20.9331 32.7492 25.3127Z" fill="white"/>
<path d="M33.9384 23.5364C32.7339 21.7043 30.7054 20.3449 28.1023 19.8645C25.7591 19.424 23.2323 19.6792 21.368 21.1888C24.479 18.0585 31.6472 19.098 33.9384 23.5364Z" fill="white"/>
<path d="M35.6849 27.5976C34.7008 28.3233 33.5466 28.8168 32.3421 29.0269C31.4655 29.1798 30.525 29.1983 29.7754 29.6777C29.3692 29.9375 29.0437 30.3204 28.6072 30.5252C28.1547 30.7375 27.6363 30.7346 27.1383 30.7753C26.6221 30.8174 25.7364 30.9876 25.5349 31.5613C25.9582 31.4245 26.4195 31.4434 26.8531 31.5428C27.9195 31.7874 29.1374 32.4273 29.8947 33.2258C31.9999 35.4455 32.7477 38.491 33.3386 41.4572C33.5322 42.4293 33.6118 42.1627 34.4183 45.6683C34.4779 45.9271 34.5464 47.0483 34.982 46.7144C35.3011 46.47 35.4001 45.7162 35.5245 45.3563C36.1648 43.5027 36.6632 41.6034 37.1319 39.6992C37.2519 39.2118 37.3702 38.7227 37.4334 38.2248C37.7217 35.956 38.1465 33.6832 38.5497 31.4164C38.7479 30.3023 39.7369 27.0198 38.0351 26.6001C37.1064 26.371 36.2652 27.1696 35.6849 27.5976Z" fill="#06080E"/>
<path d="M26.689 30.9181C28.172 30.387 29.8862 30.6462 31.3759 31.1428C32.873 31.655 34.3145 32.5551 35.1657 33.9081C33.8461 32.4137 32.0738 31.5698 30.1602 31.1026C29.0399 30.8187 27.8484 30.7037 26.689 30.9181Z" fill="white"/>
<path d="M44.8474 39.237C44.8474 41.9138 42.6768 44.0826 39.9999 44.0826C37.3231 44.0826 35.1526 41.9138 35.1526 39.237C35.4701 29.2632 35.3811 32.0588 35.3974 31.5489C35.3974 29.0063 37.4576 26.9463 39.9999 26.9463C42.5406 26.9463 44.6025 29.0063 44.6025 31.5489C44.6187 32.0581 44.5297 29.2638 44.8474 39.237Z" fill="#070407"/>
<path d="M40 44.3018C42.6688 44.3018 44.8323 42.1383 44.8323 39.4695C44.8323 36.8007 42.6688 34.6372 40 34.6372C37.3312 34.6372 35.1677 36.8007 35.1677 39.4695C35.1677 42.1383 37.3312 44.3018 40 44.3018Z" fill="#070407"/>
<path d="M40.0001 42.9877C41.943 42.9877 43.5181 41.4126 43.5181 39.4697C43.5181 37.5267 41.943 35.9517 40.0001 35.9517C38.0571 35.9517 36.4821 37.5267 36.4821 39.4697C36.4821 41.4126 38.0571 42.9877 40.0001 42.9877Z" fill="#75C1F2"/>
<path d="M36.2535 31.1085C36.635 30.4913 37.1733 29.9713 37.7939 29.5673C39.7299 28.2797 42.2081 28.7078 43.7465 30.7556C41.8306 29.4242 40.1719 28.8792 38.0067 29.9402C37.3902 30.2489 36.8049 30.6443 36.2535 31.1085Z" fill="white"/>
<path d="M36.2535 32.5781C36.635 31.9609 37.1733 31.4409 37.7939 31.0369C39.7601 29.7292 42.2306 30.2074 43.7465 32.2252C41.8444 30.9033 40.1819 30.3434 38.0067 31.41C37.3902 31.7187 36.8049 32.114 36.2535 32.5781Z" fill="white"/>
<path d="M35.787 34.5422C36.552 33.1654 38.0778 31.8657 39.8727 31.6927C41.6275 31.5542 43.2184 32.6223 44.2129 34.0863C42.9499 33.0239 41.5549 32.1072 39.917 32.2429C38.3657 32.3614 36.8871 33.4312 35.787 34.5422Z" fill="white"/>
<path d="M35.4957 36.4169C36.3521 34.893 38.003 33.5458 39.8636 33.3659C41.7834 33.2261 43.4512 34.3909 44.5043 35.9253C43.1813 34.7815 41.6524 33.7545 39.9085 33.916C38.2377 34.0462 36.6554 35.2144 35.4957 36.4169Z" fill="white"/>
<path d="M32.8546 29.4988C34.2355 29.7649 35.4514 29.4197 36.5494 28.6071C37.4114 27.9764 38.4877 26.9663 40.1475 26.8898C42.0854 26.818 42.6798 28.0025 43.6536 28.6869C44.7247 29.4375 46.1277 29.4657 47.4305 29.519C46.0886 29.6035 44.6364 29.6147 43.5205 28.8839C42.5122 28.2308 41.9572 27.1153 40.1599 27.1942C37.8104 27.2815 36.9796 29.2168 34.8408 29.6023C34.1778 29.719 33.4905 29.6913 32.8546 29.4988Z" fill="white"/>
<path d="M53.0419 45.8105C52.8022 45.731 52.6724 45.4723 52.7519 45.2327C53.8822 41.8253 57.0218 39.1441 60.5642 38.5608C60.8129 38.52 61.0485 38.6884 61.0895 38.9376C61.1306 39.1867 60.9619 39.4219 60.7127 39.4629C57.4965 39.9925 54.6461 42.4269 53.6197 45.5205C53.5406 45.7589 53.2827 45.8904 53.0419 45.8105Z" fill="white"/>
<path d="M9.01237 46.2612C8.77264 46.1817 8.64288 45.923 8.72234 45.6834C9.853 42.276 12.9924 39.5948 16.5347 39.0115C16.7834 38.9704 17.0189 39.1392 17.06 39.3883C17.1011 39.6375 16.9323 39.8726 16.6832 39.9137C13.4671 40.4432 10.6167 42.8776 9.5902 45.9713C9.51102 46.2098 9.25299 46.3411 9.01237 46.2612Z" fill="white"/>
</svg>
