<svg width="88" height="86" viewBox="0 0 88 86" fill="none" xmlns="http://www.w3.org/2000/svg">
<g clip-path="url(#clip0_666_7247)">
<path d="M15.5679 63.2528C15.319 67.503 12.1494 68.4222 10.0292 68.5519C10.4944 65.3616 11.2841 60.8953 12.4956 57.4238C13.837 57.7591 15.8058 58.9811 15.5679 63.2527V63.2528Z" fill="white"/>
<path d="M64.7505 16.5356H33.9201L14.4484 31.1352L49.3353 76.5558L84.2222 31.1352L64.7505 16.5356Z" fill="#2E3A6E"/>
<path d="M49.3351 76.8525C49.2895 76.8525 49.2446 76.842 49.2037 76.8219C49.1629 76.8017 49.1272 76.7724 49.0995 76.7363L14.2126 31.3157C14.1649 31.2526 14.144 31.1733 14.1545 31.095C14.1596 31.0561 14.1724 31.0187 14.1922 30.9849C14.212 30.951 14.2383 30.9215 14.2697 30.898L33.7414 16.2985C33.7929 16.2599 33.8555 16.2389 33.9199 16.2388H64.7503C64.8147 16.2388 64.877 16.2599 64.9288 16.2985L84.4005 30.898C84.4319 30.9215 84.4582 30.951 84.478 30.9849C84.4978 31.0187 84.5106 31.0561 84.5157 31.095C84.5261 31.1733 84.5053 31.2526 84.4576 31.3157L49.5707 76.7364C49.543 76.7725 49.5073 76.8018 49.4664 76.8219C49.4256 76.8421 49.3806 76.8525 49.3351 76.8525ZM14.8665 31.1927L49.3351 76.0689L83.8037 31.1927L64.6509 16.8324H34.0192L14.8665 31.1927H14.8665Z" fill="white"/>
<path d="M49.3352 28.149H34.7313C34.6838 28.149 34.6384 28.1364 34.5982 28.112L25.7603 22.7751C25.7312 22.7576 25.7058 22.7345 25.6857 22.7072C25.6655 22.6798 25.6509 22.6488 25.6428 22.6158C25.6346 22.5829 25.6331 22.5486 25.6382 22.5151C25.6433 22.4815 25.655 22.4493 25.6726 22.4202C25.7455 22.2977 25.9051 22.2602 26.0265 22.3326L34.8032 27.6326H49.3352C49.4778 27.6326 49.594 27.7482 49.594 27.8908C49.594 28.0334 49.4778 28.149 49.3352 28.149Z" fill="white"/>
<path d="M49.3351 76.8138C49.2875 76.8138 49.2409 76.8007 49.2003 76.7759C49.1596 76.7511 49.1266 76.7157 49.1048 76.6734L30.8501 41.1209C30.8207 41.0631 30.8139 40.9964 30.831 40.9339L34.482 27.8214C34.5211 27.6836 34.6637 27.6049 34.801 27.6419C34.867 27.6603 34.9229 27.7041 34.9566 27.7637C34.9903 27.8233 34.9989 27.8939 34.9806 27.9598L31.3561 40.9752L49.5654 76.4379C49.6299 76.5646 49.5802 76.7204 49.4534 76.7853C49.4168 76.8041 49.3763 76.8139 49.3351 76.8138Z" fill="white"/>
<path d="M49.3352 41.2615H31.0804C31.034 41.2614 30.9885 41.249 30.9484 41.2256L14.3163 31.3574C14.2574 31.3223 14.2148 31.2653 14.198 31.1989C14.1811 31.1324 14.1914 31.062 14.2264 31.0031C14.2983 30.8801 14.4599 30.8415 14.5803 30.9128L31.1512 40.7451H49.3352C49.4778 40.7451 49.5941 40.8607 49.5941 41.0033C49.5941 41.1459 49.4778 41.2615 49.3352 41.2615ZM63.9391 28.149H49.3352C49.1926 28.149 49.0764 28.0334 49.0764 27.8908C49.0764 27.7482 49.1926 27.6326 49.3352 27.6326H63.8672L72.6439 22.3326C72.7643 22.2602 72.9238 22.2978 72.9978 22.4202C73.0154 22.4493 73.027 22.4815 73.0321 22.515C73.0373 22.5486 73.0357 22.5828 73.0276 22.6158C73.0194 22.6488 73.0048 22.6798 72.9847 22.7071C72.9645 22.7344 72.9392 22.7575 72.9101 22.775L64.0722 28.112C64.032 28.1364 63.986 28.1492 63.9391 28.149Z" fill="white"/>
<path d="M49.3353 76.8135C49.2941 76.8136 49.2535 76.8038 49.2169 76.785C49.0902 76.7201 49.0405 76.5643 49.105 76.4376L67.3143 40.9749L63.6898 27.9595C63.6715 27.8936 63.6801 27.8231 63.7138 27.7634C63.7474 27.7038 63.8034 27.66 63.8694 27.6416C64.0057 27.6068 64.1493 27.6839 64.1884 27.8211L67.8393 40.9336C67.8565 40.9962 67.8497 41.0628 67.8203 41.1206L49.5655 76.6731C49.5438 76.7154 49.5107 76.7508 49.4701 76.7756C49.4295 76.8004 49.3828 76.8135 49.3353 76.8135Z" fill="white"/>
<path d="M67.5899 41.2612H49.3351C49.1925 41.2612 49.0763 41.1456 49.0763 41.003C49.0763 40.8604 49.1925 40.7448 49.3351 40.7448H67.5191L84.09 30.9126C84.2115 30.8413 84.371 30.8798 84.4439 31.0028C84.479 31.0617 84.4892 31.1321 84.4723 31.1986C84.4555 31.265 84.413 31.3221 84.3541 31.3572L67.722 41.2254C67.6819 41.2487 67.6363 41.2611 67.5899 41.2612Z" fill="white"/>
<path d="M33.9255 29.6194C29.7023 29.6194 25.8788 31.3307 23.1089 34.0999C20.3389 36.869 18.627 40.6914 18.627 44.9133C18.627 40.6914 16.9152 36.869 14.1452 34.0999C11.3799 31.3307 7.55648 29.6194 3.33325 29.6194C7.55648 29.6194 11.38 27.908 14.1452 25.1388C16.9152 22.3743 18.627 18.552 18.627 14.3301C18.627 18.552 20.3389 22.3743 23.1089 25.1388C25.8789 27.908 29.7024 29.6194 33.9255 29.6194Z" fill="white"/>
<path d="M18.6275 45.2379C18.5849 45.2379 18.5427 45.2295 18.5033 45.2132C18.4639 45.197 18.4282 45.1731 18.398 45.143C18.3679 45.1128 18.344 45.0771 18.3277 45.0377C18.3115 44.9984 18.3031 44.9562 18.3031 44.9136C18.3031 40.9168 16.7449 37.1576 13.9158 34.3294C11.092 31.5012 7.33438 29.9435 3.33374 29.9435C3.15418 29.9435 3.0094 29.7982 3.0094 29.6192C3.0094 29.4402 3.15412 29.295 3.33374 29.295C7.33438 29.295 11.0931 27.7377 13.9158 24.9096C16.7449 22.086 18.3031 18.329 18.3031 14.3301C18.3031 14.1511 18.4478 14.0059 18.6275 14.0059C18.8071 14.0059 18.9518 14.1511 18.9518 14.3301C18.9518 18.3296 20.5089 22.0866 23.338 24.9096C26.1661 27.7378 29.9269 29.295 33.9254 29.295C34.1049 29.295 34.2497 29.4402 34.2497 29.6192C34.2497 29.7982 34.105 29.9435 33.9254 29.9435C29.9268 29.9435 26.1671 31.5012 23.338 34.3294C20.51 37.1571 18.9518 40.9163 18.9518 44.9136C18.9518 44.9562 18.9435 44.9984 18.9272 45.0377C18.9109 45.0771 18.887 45.1128 18.8569 45.143C18.8268 45.1731 18.791 45.197 18.7516 45.2132C18.7122 45.2295 18.6701 45.2379 18.6275 45.2379ZM6.52522 29.6192C9.48105 30.2296 12.195 31.6876 14.3744 33.8711C16.559 36.0551 18.0169 38.7698 18.6275 41.7243C19.2381 38.7698 20.6959 36.0546 22.8796 33.8711C25.0632 31.6871 27.7792 30.2297 30.7351 29.6192C27.7792 29.0088 25.0632 27.5514 22.8796 25.3679C20.6959 23.1886 19.2381 20.475 18.6275 17.52C18.0169 20.4745 16.5591 23.1881 14.3744 25.3679C12.195 27.5514 9.48111 29.0088 6.52522 29.6192Z" fill="#06080E"/>
<path d="M30.8081 11.621C29.4512 11.621 28.2227 12.1709 27.3326 13.0607C26.4426 13.9505 25.8926 15.1786 25.8926 16.5351C25.8926 15.1786 25.3426 13.9505 24.4525 13.0607C23.564 12.1709 22.3355 11.621 20.9785 11.621C22.3355 11.621 23.564 11.0712 24.4525 10.1814C25.3426 9.29317 25.8926 8.06499 25.8926 6.7085C25.8926 8.06505 26.4426 9.29317 27.3326 10.1814C28.2227 11.0712 29.4512 11.621 30.8081 11.621Z" fill="white"/>
<path d="M25.8924 16.8594C25.8498 16.8594 25.8076 16.851 25.7682 16.8347C25.7289 16.8185 25.6931 16.7946 25.663 16.7645C25.6329 16.7343 25.609 16.6986 25.5927 16.6592C25.5764 16.6199 25.568 16.5777 25.5681 16.5351C25.5681 15.309 25.0906 14.1563 24.2232 13.2897C23.3569 12.4226 22.2055 11.9453 20.979 11.9453C20.7994 11.9453 20.6547 11.8 20.6547 11.621C20.6547 11.442 20.7994 11.2968 20.979 11.2968C22.2055 11.2968 23.357 10.8194 24.2232 9.95234C25.0906 9.08686 25.5681 7.93468 25.5681 6.70852C25.5681 6.52951 25.7128 6.38428 25.8924 6.38428C26.072 6.38428 26.2167 6.52951 26.2167 6.70852C26.2167 7.93412 26.6942 9.08582 27.5626 9.95234C28.43 10.8194 29.5825 11.2968 30.8079 11.2968C30.9875 11.2968 31.1322 11.442 31.1322 11.621C31.1322 11.8 30.9875 11.9453 30.8079 11.9453C29.5825 11.9453 28.4299 12.4226 27.5626 13.2897C26.6942 14.1568 26.2167 15.3095 26.2167 16.5351C26.2168 16.5777 26.2084 16.6199 26.1921 16.6592C26.1758 16.6986 26.1519 16.7343 26.1218 16.7645C26.0917 16.7946 26.0559 16.8185 26.0166 16.8347C25.9772 16.851 25.935 16.8594 25.8924 16.8594ZM22.8013 11.6211C23.4996 11.8799 24.1398 12.2891 24.6818 12.8314C25.2248 13.3737 25.6336 14.0142 25.8924 14.7134C26.1513 14.0148 26.5611 13.3742 27.1041 12.8314C27.646 12.2886 28.2873 11.8798 28.9856 11.6211C28.2873 11.3624 27.646 10.9537 27.1041 10.4109C26.5611 9.86908 26.1512 9.22858 25.8924 8.52994C25.6336 9.22908 25.2248 9.86908 24.6818 10.4109C24.1398 10.9537 23.4996 11.3624 22.8013 11.6211Z" fill="#06080E"/>
<path d="M40.8471 20.9682C39.4901 20.9682 38.2616 21.5181 37.3716 22.4078C36.4815 23.2976 35.9315 24.5258 35.9315 25.8823C35.9315 24.5258 35.3815 23.2976 34.4915 22.4078C33.603 21.5181 32.3744 20.9682 31.0175 20.9682C32.3744 20.9682 33.6029 20.4184 34.4915 19.5286C35.3815 18.6403 35.9315 17.4122 35.9315 16.0557C35.9315 17.4122 36.4815 18.6403 37.3716 19.5286C38.2616 20.4184 39.4901 20.9682 40.8471 20.9682Z" fill="white"/>
<path d="M35.9313 26.2065C35.8887 26.2066 35.8465 26.1982 35.8071 26.1819C35.7678 26.1656 35.732 26.1417 35.7019 26.1116C35.6717 26.0815 35.6479 26.0458 35.6316 26.0064C35.6153 25.967 35.6069 25.9249 35.6069 25.8823C35.6069 24.6572 35.1295 23.5045 34.2621 22.6369C33.3958 21.7698 32.2433 21.2924 31.0168 21.2924C30.8373 21.2924 30.6925 21.1472 30.6925 20.9682C30.6925 20.7892 30.8372 20.6439 31.0168 20.6439C32.2434 20.6439 33.3959 20.1666 34.2621 19.2995C35.1295 18.433 35.6069 17.2808 35.6069 16.0557C35.6069 15.8767 35.7517 15.7314 35.9313 15.7314C36.1109 15.7314 36.2556 15.8767 36.2556 16.0557C36.2556 17.2807 36.7331 18.433 37.6005 19.2995C38.4678 20.1666 39.6214 20.6439 40.8468 20.6439C41.0264 20.6439 41.1712 20.7892 41.1712 20.9682C41.1712 21.1472 41.0265 21.2924 40.8468 21.2924C39.6214 21.2924 38.4678 21.7698 37.6005 22.6369C36.7331 23.5044 36.2556 24.6572 36.2556 25.8823C36.2557 25.9249 36.2473 25.967 36.231 26.0064C36.2147 26.0458 36.1908 26.0815 36.1607 26.1116C36.1306 26.1417 36.0948 26.1656 36.0554 26.1819C36.0161 26.1982 35.9739 26.2066 35.9313 26.2065ZM32.8402 20.9683C33.5385 21.2271 34.1787 21.6363 34.7207 22.1786C35.2636 22.7214 35.6725 23.3625 35.9313 24.0611C36.1901 23.362 36.5989 22.7215 37.1419 22.1786C37.6849 21.6358 38.3262 21.227 39.0245 20.9683C38.3262 20.7095 37.6849 20.3009 37.1419 19.758C36.5989 19.2158 36.1901 18.5758 35.9313 17.8771C35.6724 18.5757 35.2636 19.2157 34.7207 19.758C34.1787 20.3009 33.5385 20.7096 32.8402 20.9683Z" fill="#06080E"/>
</g>
<defs>
<clipPath id="clip0_666_7247">
<rect width="88" height="84.3077" fill="white" transform="translate(0 0.846191)"/>
</clipPath>
</defs>
</svg>
