<svg width="14" height="14" viewBox="0 0 14 14" fill="none" xmlns="http://www.w3.org/2000/svg">
<path d="M6.41602 2.33314H2.33268C2.02326 2.33314 1.72652 2.45606 1.50772 2.67485C1.28893 2.89364 1.16602 3.19039 1.16602 3.49981V11.6665C1.16602 11.9759 1.28893 12.2726 1.50772 12.4914C1.72652 12.7102 2.02326 12.8331 2.33268 12.8331H10.4993C10.8088 12.8331 11.1055 12.7102 11.3243 12.4914C11.5431 12.2726 11.666 11.9759 11.666 11.6665V7.58314M10.791 1.45814C11.0231 1.22608 11.3378 1.0957 11.666 1.0957C11.9942 1.0957 12.309 1.22608 12.541 1.45814C12.7731 1.6902 12.9035 2.00495 12.9035 2.33314C12.9035 2.66133 12.7731 2.97608 12.541 3.20814L6.99935 8.74981L4.66602 9.33314L5.24935 6.99981L10.791 1.45814Z" stroke="#2E3A6E" stroke-linecap="round" stroke-linejoin="round"/>
</svg>
