<svg xmlns="http://www.w3.org/2000/svg" width="101" height="100" viewBox="0 0 101 100" fill="none">
  <path d="M17.1706 41.0643L8.34375 82.362L72.1527 93.8039L76.6184 51.7242C67.8009 42.3251 58.9833 32.926 50.1658 23.5269C39.1674 29.3727 28.169 35.2184 17.1706 41.0643Z" fill="#FF6A00"/>
  <path d="M17.1706 41.0645L38.9853 65.4L44.9732 61.7328L48.8549 67.1698L76.6184 51.7245L72.1527 93.8041L8.34375 82.3622L17.1706 41.0645Z" fill="#FFAC40"/>
  <path d="M37.673 65.4011C36.4188 65.9041 33.1932 67.5027 32.0342 68.0904C26.4305 70.9319 20.9745 74.1605 15.7955 77.7177C14.4211 78.6616 11.3807 80.8005 10.1137 81.8844C9.99171 81.9887 10.1519 82.1977 10.2861 82.1078C11.6984 81.1616 14.7683 78.7107 20.6087 75.0316C29.6097 69.3614 36.4846 66.4229 37.8173 65.7433C38.0029 65.6486 37.8719 65.3213 37.673 65.4011ZM70.8349 92.729C70.3123 91.9385 70.2015 91.8842 66.7222 87.7744C61.3511 81.4302 51.6735 69.9824 49.4107 67.4633C49.3 67.3401 49.133 67.5177 49.2321 67.6419C52.3585 71.5592 69.3767 91.5597 69.3589 91.5388C69.758 92.0099 70.1474 92.4889 70.6001 92.9102C70.7195 93.0213 70.9323 92.8763 70.8349 92.729Z" fill="#FF6A00"/>
  <path d="M68.1914 68.2399C70.0698 68.6561 71.9483 69.0723 73.8267 69.4884C74.5493 70.5235 75.2719 71.5587 75.9945 72.5938C77.0128 71.9789 78.0312 71.364 79.0495 70.7491C81.9949 71.6114 84.9404 72.4737 87.8858 73.336C87.3419 67.4691 86.7981 61.6022 86.2542 55.7354C80.2333 59.9036 74.2124 64.0717 68.1914 68.2399Z" fill="#4A53E2"/>
  <path d="M73.826 69.4884L86.2535 55.7354L79.0488 70.7491L76.4787 74.4254C75.5945 72.7798 74.7102 71.1341 73.826 69.4884ZM78.6137 74.5094C77.6104 76.1116 73.4169 85.174 62.397 91.4128C54.6728 95.7859 45.2655 97.6989 36.9772 94.8358C33.2233 93.5391 29.8224 91.2931 27.2612 88.2477C26.939 87.8647 26.629 87.4693 26.3263 87.0707C26.2058 86.9119 25.9377 87.0533 26.0506 87.2318C28.1943 90.6235 31.6971 93.1407 35.3508 94.686C49.8761 100.829 69.5167 91.994 78.3113 75.9378C78.544 75.513 78.7446 75.0901 78.9215 74.6391C78.9934 74.4558 78.7111 74.3539 78.6137 74.5094Z" fill="#2E3A6E"/>
  <path d="M20.9253 14.5542C25.8586 13.0053 31.8125 13.9669 34.9572 15.8373C34.9454 15.7904 34.9991 15.7358 35.0528 15.7698C36.2248 16.5103 37.2295 17.3775 38.0646 18.4899C40.6272 21.9037 41.0547 26.3216 39.4071 30.1349C38.9234 31.2543 37.8027 33.8481 34.937 35.3465C33.0214 36.3481 31.1935 36.4066 30.2364 36.366C30.2359 36.9306 30.328 37.6449 30.7203 38.3309C31.3615 39.4519 32.3469 39.6972 32.2676 39.9053C32.1129 40.3117 28.0822 40.0357 26.2714 36.9317C25.7073 36.8792 25.1448 36.8089 24.5873 36.7253C21.5606 36.2714 18.2831 35.7332 15.6992 33.9826C13.3925 32.4198 12.0026 29.853 11.7138 27.1034C11.0956 21.2177 15.5434 16.2439 20.9253 14.5542Z" fill="#E5E5FF"/>
  <path d="M32.5097 28.713C30.485 30.8704 27.6733 32.334 24.6617 31.599C21.6927 30.8743 19.7931 27.9132 19.7798 24.9477C19.7658 21.8279 22.0658 19.3394 25.0329 18.6346C28.0509 17.9177 32.073 19.5037 32.2722 23.0032C32.3743 24.7963 31.3654 26.84 29.6554 27.5579C28.3114 28.1222 27.1291 27.4146 27.3738 25.8837C27.9743 25.1597 28.385 24.2366 28.7305 23.4041C28.9029 22.9886 28.6042 22.5478 28.2422 22.4477C28.3008 22.2757 28.2252 22.0527 28.0062 22.0025C26.4609 21.648 24.6163 21.5543 23.3534 22.6924C22.4709 23.4877 21.964 24.8783 22.5858 25.9799C23.2419 27.1422 24.8459 27.4369 26.0697 26.9045C26.1585 27.4056 26.3927 27.8867 26.83 28.3209C28.3805 29.8607 30.804 28.7603 32.0279 27.3757C33.3022 25.9341 33.8834 23.8739 33.4608 21.9888C32.9823 19.855 31.208 18.2409 29.1936 17.5355C25.5378 16.2552 21.1087 17.9874 19.2972 21.4139C17.4701 24.8702 18.6994 29.5505 21.863 31.793C25.3176 34.2417 31.5154 33.3929 33.1705 29.1545C33.3324 28.74 32.8342 28.3672 32.5097 28.713ZM23.545 25.419C23.0326 24.5192 23.8833 23.4289 24.6856 23.0694C25.5847 22.6664 26.6586 22.7015 27.643 22.6701C27.0852 23.4149 26.5267 24.315 26.2382 25.1996C25.4854 25.9695 24.0687 26.3386 23.545 25.419Z" fill="#4A53E2"/>
  <path d="M16.2297 17.2654C12.9839 19.2384 11.1761 23.2005 11.3805 26.8454C11.4063 27.3062 11.4285 27.8185 11.588 28.2551C11.6579 28.4465 11.9712 28.4332 11.9635 28.2044C11.9418 27.5622 11.7596 27.1876 11.8148 25.8574C11.9522 22.5512 13.6668 19.4595 16.3715 17.508C16.5152 17.4043 16.3873 17.1695 16.2297 17.2654ZM14.9989 33.1175C14.802 32.8995 14.5829 32.7398 14.084 32.3457C14.0084 32.2859 13.8957 32.2663 13.8229 32.3457C13.761 32.413 13.7429 32.5417 13.8229 32.6067C14.3111 33.0026 14.5482 33.2095 14.8128 33.3587C14.9627 33.4433 15.1231 33.2553 14.9989 33.1175ZM60.4627 18.9552C59.7941 19.8487 56.3015 26.5279 48.309 34.0726C48.1678 34.2059 48.3795 34.4159 48.5215 34.2851C52.7422 30.3979 56.4722 25.9142 59.5853 21.0111C59.976 20.3958 60.4239 19.7731 60.7251 19.1085C60.8065 18.9288 60.58 18.7985 60.4627 18.9552ZM64.4526 13.6877C64.1016 14.0805 63.9657 14.3598 63.0541 15.7601C62.7836 16.1759 62.706 16.3077 62.7044 16.4197C62.6933 16.441 62.6822 16.4623 62.6711 16.4837C62.6123 16.597 62.7691 16.739 62.8584 16.6282C62.8995 16.5772 62.9355 16.5676 62.9839 16.5269C63.0828 16.4436 63.6115 15.6203 63.8102 15.3178C64.1166 14.8515 64.4738 14.3916 64.7065 13.8837C64.7774 13.7289 64.5843 13.5401 64.4526 13.6877ZM13.798 61.5977L8.90067 80.5678C8.84569 80.7818 9.1765 80.873 9.23148 80.659L14.0847 61.6767C14.1318 61.4912 13.8463 61.4123 13.798 61.5977ZM18.4797 83.4184C17.8999 83.2719 17.2832 83.2531 16.6896 83.1952C16.0853 83.1362 15.4796 83.0607 14.8735 83.0271C14.664 83.0155 14.6101 83.3679 14.8232 83.3994C15.4185 83.4871 16.0211 83.5359 16.6198 83.5987C17.2185 83.6615 17.8331 83.7699 18.4358 83.7425C18.6161 83.7343 18.6667 83.4657 18.4797 83.4184ZM60.8387 84.4151C60.4363 83.7308 60.2819 83.5529 57.8537 80.1602L53.048 73.4896C52.9408 73.3416 52.6922 73.4826 52.7997 73.6348C54.8207 76.4943 56.8514 79.347 58.8877 82.1956C59.4587 82.9944 60.0032 83.8205 60.6436 84.5655C60.7368 84.6739 60.9089 84.5346 60.8387 84.4151ZM62.6712 86.8393C62.5147 86.672 62.3225 86.5387 61.9091 86.2285C61.8491 86.1834 61.7223 86.203 61.6767 86.2894C61.6295 86.3786 61.6614 86.4647 61.7376 86.5219C62.1108 86.8019 62.3001 86.9547 62.5029 87.0573C62.6516 87.1326 62.7793 86.9546 62.6712 86.8393ZM86.035 65.3864C86.0103 64.4529 86.0275 63.5045 85.9409 62.5746C85.9217 62.3678 85.6233 62.3613 85.6142 62.5746C85.5746 63.5074 85.64 64.4532 85.6626 65.3864C85.6853 66.3258 85.717 67.2605 85.7779 68.1981C85.7896 68.3791 86.0595 68.3828 86.0621 68.1981C86.0755 67.2594 86.0598 66.3249 86.035 65.3864ZM48.0687 19.3552C45.6828 16.7189 43.7776 14.8107 38.8341 9.66695C38.6954 9.52258 38.4772 9.74148 38.6147 9.88642C45.3509 16.9915 46.3362 18.0444 47.8631 19.5609C47.9967 19.6936 48.1937 19.4934 48.0687 19.3552ZM50.6763 16.8228C50.2171 15.4697 50.2423 15.6148 47.3301 8.00631C47.252 7.80226 46.9203 7.89068 46.9993 8.09754C49.9051 15.7074 49.8482 15.6322 50.4045 16.9374C50.4703 17.0916 50.7301 16.9816 50.6763 16.8228ZM54.149 13.4248L54.1121 3.72651C54.1109 3.45538 53.6906 3.45482 53.6907 3.72651C53.6925 14.8931 53.687 15.5923 53.7461 16.6575C53.7594 16.8967 54.1064 16.8977 54.1186 16.6575C54.1731 15.5811 54.1512 14.5024 54.149 13.4248ZM92.6568 87.5425C91.4746 85.9772 90.1605 84.5093 88.8925 83.0133C87.5343 81.4109 84.2584 77.5484 82.8605 75.9447C82.7197 75.7831 82.4939 76.0164 82.6272 76.1781C84.0628 77.9199 91.1526 86.3617 92.4361 87.7128C92.5431 87.8254 92.7546 87.6721 92.6568 87.5425ZM84.6603 87.1273C83.6768 85.1205 82.6036 83.1582 81.557 81.1838C81.4535 80.9886 81.1579 81.1616 81.2608 81.3569C82.3017 83.3333 83.3173 85.325 84.4206 87.2674C84.5097 87.4244 84.7383 87.2863 84.6603 87.1273ZM92.0854 76.7976C91.336 76.4901 90.9991 76.4012 87.2399 75.206C86.9647 75.1185 86.8468 75.5508 87.1209 75.6377C90.9984 76.8671 91.2015 76.9503 91.9933 77.1316C92.2161 77.1826 92.2871 76.8804 92.0854 76.7976Z" fill="#2E3A6E"/>
</svg>