<svg xmlns="http://www.w3.org/2000/svg" width="21" height="20" viewBox="0 0 21 20" fill="none">
  <path d="M18.8332 9.99984C18.8332 14.6022 15.1022 18.3332 10.4998 18.3332M18.8332 9.99984C18.8332 5.39746 15.1022 1.6665 10.4998 1.6665M18.8332 9.99984H2.1665M10.4998 18.3332C5.89746 18.3332 2.1665 14.6022 2.1665 9.99984M10.4998 18.3332C12.5842 16.0512 13.7688 13.0898 13.8332 9.99984C13.7688 6.90987 12.5842 3.94846 10.4998 1.6665M10.4998 18.3332C8.41544 16.0512 7.23088 13.0898 7.1665 9.99984C7.23088 6.90987 8.41544 3.94846 10.4998 1.6665M2.1665 9.99984C2.1665 5.39746 5.89746 1.6665 10.4998 1.6665" stroke="#3F3F3F" stroke-width="2" stroke-linecap="round" stroke-linejoin="round"/>
</svg>