<svg width="80" height="80" viewBox="0 0 80 80" fill="none" xmlns="http://www.w3.org/2000/svg">
<g clip-path="url(#clip0_666_7333)">
<mask id="mask0_666_7333" style="mask-type:luminance" maskUnits="userSpaceOnUse" x="-19" y="-19" width="118" height="118">
<path d="M98.1819 -18.1816H-18.1818V98.182H98.1819V-18.1816Z" fill="white"/>
</mask>
<g mask="url(#mask0_666_7333)">
<path d="M44.384 75.466C28.5544 81.3197 11.0003 73.2437 5.14663 57.4142C-0.695185 41.6179 7.38076 24.0626 23.2103 18.2089L27.0662 16.638C42.8625 10.7962 60.4166 18.8722 66.2584 34.6685C72.1121 50.4981 64.0361 68.0521 48.2398 73.8939L44.384 75.466Z" fill="#1C0C33"/>
<path d="M44.384 75.466C28.5544 81.3197 11.0003 73.2437 5.14663 57.4142C-0.695185 41.6179 7.38076 24.0626 23.2103 18.2089L27.0662 16.638C42.8625 10.7962 60.4166 18.8722 66.2584 34.6685C72.1121 50.4981 64.0361 68.0521 48.2398 73.8939L44.384 75.466Z" stroke="#1C0C33" stroke-width="2.5" stroke-linecap="round" stroke-linejoin="round"/>
<path d="M48.2398 73.8928C32.417 79.7428 14.8608 71.6703 8.99925 55.8481C3.16426 40.048 11.2379 22.4929 27.0606 16.6429C35.1729 13.6355 43.7514 14.3072 50.97 17.8088C55.2027 19.8685 58.972 22.8889 61.8931 26.7258C63.6961 29.0822 65.1743 31.7424 66.2618 34.6672C72.1135 50.5027 64.0399 68.0578 48.2398 73.8928Z" fill="#13CF78"/>
<path d="M16.5194 49.3241C18.7664 60.9989 30.038 68.6328 41.7127 66.3858C53.3633 64.1433 60.9971 52.8706 58.7501 41.1958C56.5076 29.5453 45.2349 21.9126 33.5844 24.1551C21.9096 26.4021 14.2769 37.6736 16.5194 49.3241Z" fill="white"/>
<path d="M20.2128 26.1331C17.2316 28.8525 14.9227 32.2374 13.4731 35.9993" stroke="#1C0C33" stroke-width="0.5" stroke-linecap="round" stroke-linejoin="round"/>
<path d="M22.0623 24.597C21.858 24.7513 21.6562 24.9078 21.4569 25.0676" stroke="#1C0C33" stroke-width="0.5" stroke-linecap="round" stroke-linejoin="round"/>
<path d="M38.97 57.9254C32.4563 58.6194 26.3818 54.1141 25.1409 47.6656C24.4996 44.3339 25.1954 40.95 27.1013 38.139C29.0081 35.3243 31.9006 33.4205 35.2438 32.7764C35.6043 32.7075 35.9631 32.6549 36.3202 32.6165C42.8234 31.9218 48.8882 36.4193 50.1274 42.8551C50.7704 46.1995 50.0761 49.5915 48.1704 52.4072C46.267 55.2193 43.3849 57.1215 40.0544 57.7628C39.6916 57.833 39.3306 57.8868 38.9711 57.9254L38.97 57.9254Z" fill="#13CF78"/>
<path d="M38.0408 49.1938C36.0604 49.4039 34.1431 47.9748 33.7636 46.0063C33.5631 44.9631 33.7715 43.9468 34.3688 43.0665C34.9705 42.1791 35.8463 41.6026 36.9045 41.3992C37.0223 41.3767 37.1369 41.359 37.2517 41.3471C39.2203 41.1365 41.128 42.5589 41.5047 44.5147C41.7081 45.5729 41.499 46.5998 40.8996 47.486C40.3024 48.3686 39.4357 48.94 38.3949 49.1404C38.277 49.1628 38.1579 49.1819 38.0408 49.1938Z" fill="white"/>
<path d="M16.5194 49.3241C18.7664 60.9989 30.038 68.6328 41.7127 66.3858C53.3633 64.1433 60.9971 52.8706 58.7501 41.1958C56.5076 29.5453 45.2349 21.9126 33.5844 24.1551C21.9096 26.4021 14.2769 37.6736 16.5194 49.3241Z" stroke="#1C0C33" stroke-width="1.5" stroke-linecap="round" stroke-linejoin="round"/>
<path d="M38.97 57.9254C32.4563 58.6194 26.3818 54.1141 25.1409 47.6656C24.4996 44.3339 25.1954 40.95 27.1013 38.139C29.0081 35.3243 31.9006 33.4205 35.2438 32.7764C35.6043 32.7075 35.9631 32.6549 36.3202 32.6165C42.8234 31.9218 48.8882 36.4193 50.1274 42.8551C50.7704 46.1995 50.0761 49.5915 48.1704 52.4072C46.267 55.2193 43.3849 57.1215 40.0544 57.7628C39.6916 57.833 39.3306 57.8868 38.9711 57.9254L38.97 57.9254Z" stroke="#1C0C33" stroke-width="1.5" stroke-linecap="round" stroke-linejoin="round"/>
<path d="M38.0408 49.1938C36.0604 49.4039 34.1431 47.9748 33.7636 46.0063C33.5631 44.9631 33.7715 43.9468 34.3688 43.0665C34.9705 42.1791 35.8463 41.6026 36.9045 41.3992C37.0223 41.3767 37.1369 41.359 37.2517 41.3471C39.2203 41.1365 41.128 42.5589 41.5047 44.5147C41.7081 45.5729 41.499 46.5998 40.8996 47.486C40.3024 48.3686 39.4357 48.94 38.3949 49.1404C38.277 49.1628 38.1579 49.1819 38.0408 49.1938Z" stroke="#1C0C33" stroke-width="2.5" stroke-linecap="round" stroke-linejoin="round"/>
<path d="M9.00256 55.8433C14.8563 71.6728 32.4103 79.7477 48.2398 73.8939C64.0362 68.0521 72.1121 50.4981 66.2584 34.6685C60.4166 18.8722 42.8626 10.7962 27.0663 16.638C11.2367 22.4917 3.16074 40.0469 9.00256 55.8433Z" stroke="#1C0C33" stroke-width="0.5" stroke-linecap="round" stroke-linejoin="round"/>
<path d="M61.3186 26.0043L52.0029 27.2718C51.7244 27.3092 51.4617 27.111 51.4242 26.8314L50.142 17.4071C51.0896 17.8351 60.3098 4.76832 60.3098 4.76832L61.1206 13.7177L71.3702 12.4908C71.3702 12.4908 62.7741 25.1022 61.3186 26.0043Z" fill="#1C0C33"/>
<path d="M74.2911 11.4919L64.8131 23.9565C64.731 24.065 64.609 24.1367 64.4738 24.1546L53.2032 25.6879C52.9213 25.7268 52.6634 25.5294 52.6245 25.2475L51.0901 13.9782C51.0723 13.843 51.1091 13.7062 51.1912 13.5976L60.6692 1.13309C60.9464 0.767939 61.5267 0.921238 61.5884 1.3753L62.9834 11.6257C63.0222 11.9075 63.2801 12.1049 63.562 12.0661L73.8124 10.6711C74.2664 10.6094 74.5683 11.1268 74.2911 11.4919Z" fill="#13CF78"/>
<path d="M37.0699 45.8839C36.532 45.4744 36.4268 44.7062 36.8363 44.1682L64.9835 7.57442C65.393 7.03647 66.1601 6.93141 66.6981 7.34089C67.236 7.75037 67.3411 8.51749 66.9316 9.05543L38.7845 45.6504C38.375 46.1883 37.6079 46.2934 37.0699 45.8839Z" fill="white"/>
<path d="M37.0699 45.8839C36.532 45.4744 36.4268 44.7062 36.8363 44.1682L64.9835 7.57442C65.393 7.03647 66.1601 6.93141 66.6981 7.34089C67.236 7.75037 67.3411 8.51749 66.9316 9.05543L38.7845 45.6504C38.375 46.1883 37.6079 46.2934 37.0699 45.8839Z" stroke="#1C0C33" stroke-linecap="round" stroke-linejoin="round"/>
</g>
</g>
<defs>
<clipPath id="clip0_666_7333">
<rect width="80" height="80" fill="white"/>
</clipPath>
</defs>
</svg>
