<svg xmlns="http://www.w3.org/2000/svg" width="140" height="140" viewBox="0 0 140 140" fill="none">
  <path opacity="0.5" d="M70 133C104.794 133 133 104.794 133 70C133 35.2061 104.794 7 70 7C35.2061 7 7 35.2061 7 70C7 104.794 35.2061 133 70 133Z" fill="#13CF78" fill-opacity="0.4"/>
  <path d="M70 3.5C106.694 3.5 136.5 33.3065 136.5 70C136.5 106.694 106.694 136.5 70 136.5C33.3065 136.5 3.5 106.694 3.5 70C3.5 33.3065 33.3065 3.5 70 3.5ZM70 10.5C37.1835 10.5 10.5 37.1835 10.5 70C10.5 102.816 37.1835 129.5 70 129.5C102.816 129.5 129.5 102.816 129.5 70C129.5 37.1835 102.816 10.5 70 10.5Z" fill="url(#paint0_linear_547_4576)" stroke="white" stroke-width="3.5"/>
  <path d="M62.7902 95.6898C61.3902 95.6898 60.0602 95.1298 59.0802 94.1498L39.6202 74.6898C37.5902 72.6598 37.5902 69.2998 39.6202 67.2698C41.6502 65.2398 45.0102 65.2398 47.0402 67.2698L62.3702 82.5998L91.1402 46.3398C92.9602 44.0998 96.2502 43.6798 98.4902 45.4998C100.73 47.3198 101.15 50.6098 99.3302 52.8498L66.9202 93.7298C66.0102 94.9198 64.6102 95.6198 63.1402 95.6898C63.0002 95.6898 62.9302 95.6898 62.7902 95.6898Z" fill="url(#paint1_linear_547_4576)"/>
  <defs>
    <linearGradient id="paint0_linear_547_4576" x1="1.75" y1="70" x2="138.25" y2="70" gradientUnits="userSpaceOnUse">
      <stop stop-color="#13CF78"/>
      <stop offset="1" stop-color="#079352"/>
    </linearGradient>
    <linearGradient id="paint1_linear_547_4576" x1="38.0662" y1="69.9998" x2="100.443" y2="69.9998" gradientUnits="userSpaceOnUse">
      <stop stop-color="#13CF78"/>
      <stop offset="1" stop-color="#079352"/>
    </linearGradient>
  </defs>
</svg>