<svg xmlns="http://www.w3.org/2000/svg" width="32" height="32" viewBox="0 0 32 32" fill="none">
  <path d="M18.6668 2.6665H8.00016C7.29292 2.6665 6.61464 2.94746 6.11454 3.44755C5.61445 3.94765 5.3335 4.62593 5.3335 5.33317V26.6665C5.3335 27.3737 5.61445 28.052 6.11454 28.5521C6.61464 29.0522 7.29292 29.3332 8.00016 29.3332H24.0002C24.7074 29.3332 25.3857 29.0522 25.8858 28.5521C26.3859 28.052 26.6668 27.3737 26.6668 26.6665V10.6665M18.6668 2.6665L26.6668 10.6665M18.6668 2.6665V10.6665H26.6668M21.3335 17.3332H10.6668M21.3335 22.6665H10.6668M13.3335 11.9998H10.6668" stroke="#2E3A6E" stroke-width="1.5" stroke-linecap="round" stroke-linejoin="round"/>
</svg>